<?xml version="1.0" standalone="no"?><!DOCTYPE svg PUBLIC "-//W3C//DTD SVG 1.1//EN" "http://www.w3.org/Graphics/SVG/1.1/DTD/svg11.dtd"><svg t="1731928325251" class="icon" viewBox="0 0 1024 1024" version="1.1" xmlns="http://www.w3.org/2000/svg" p-id="1138" xmlns:xlink="http://www.w3.org/1999/xlink" width="32" height="32"><path d="M871.16 832.35L663.53 624.72c43.87-51.51 70.37-118.27 70.37-191.23 0-162.98-132.12-295.1-295.1-295.1s-295.1 132.12-295.1 295.1 132.12 295.1 295.1 295.1c67.53 0 129.75-22.7 179.48-60.86l208.76 208.76c12.18 12.18 31.94 12.18 44.13 0 12.17-12.2 12.17-31.96-0.01-44.14zM438.8 680.58c-33.38 0-65.73-6.53-96.17-19.4-29.42-12.44-55.85-30.27-78.56-52.97-22.71-22.71-40.53-49.14-52.97-78.56-12.87-30.43-19.4-62.79-19.4-96.17s6.53-65.73 19.4-96.17c12.44-29.42 30.27-55.85 52.97-78.56 22.71-22.71 49.14-40.53 78.56-52.97 30.43-12.87 62.79-19.4 96.17-19.4s65.73 6.53 96.17 19.4c29.42 12.44 55.85 30.27 78.56 52.97 22.71 22.71 40.53 49.14 52.97 78.56 12.87 30.43 19.4 62.79 19.4 96.17s-6.53 65.73-19.4 96.17c-12.44 29.42-30.27 55.85-52.97 78.56-22.71 22.71-49.14 40.53-78.56 52.97-30.44 12.87-62.79 19.4-96.17 19.4z" p-id="1139"></path></svg>