<?xml version="1.0" standalone="no"?><!DOCTYPE svg PUBLIC "-//W3C//DTD SVG 1.1//EN" "http://www.w3.org/Graphics/SVG/1.1/DTD/svg11.dtd"><svg t="1732005826246" class="icon" viewBox="0 0 1024 1024" version="1.1" xmlns="http://www.w3.org/2000/svg" p-id="11412" xmlns:xlink="http://www.w3.org/1999/xlink" width="32" height="32"><path d="M844.1344 277.76h-21.1968V202.2912a41.984 41.984 0 0 0-41.9328-41.984H310.8864A83.5072 83.5072 0 0 0 227.5328 243.712V855.04a104.0384 104.0384 0 0 0 103.936 103.8848h483.84a95.7952 95.7952 0 0 0 95.6928-95.744V344.6784a66.9696 66.9696 0 0 0-66.8672-66.9184z" fill="#FFF3AE" p-id="11413"></path><path d="M728.832 897.9968H226.2016a108.032 108.032 0 0 1-107.9808-107.9296V158.72v-1.3312-2.3552A86.7328 86.7328 0 0 1 204.8 68.352h488.3456a43.6224 43.6224 0 0 1 43.5712 43.5712v78.4384h22.016a69.5808 69.5808 0 0 1 69.4784 69.4784V798.72a99.5328 99.5328 0 0 1-99.3792 99.2768zM169.4208 233.984v556.0832a56.832 56.832 0 0 0 56.7808 56.7296h502.6304a48.2304 48.2304 0 0 0 48.2304-48.2304V259.84a18.2784 18.2784 0 0 0-18.2784-18.2784H204.8a86.3744 86.3744 0 0 1-35.3792-7.5776zM204.8 119.552a35.4304 35.4304 0 1 0 0 70.8096h480.768V119.552z" fill="#333333" p-id="11414"></path><path d="M644.5056 458.8032h-327.68a25.6 25.6 0 0 1 0-51.2h327.68a25.6 25.6 0 0 1 0 51.2zM533.4528 660.1216H316.7232a25.6 25.6 0 0 1 0-51.2h216.7296a25.6 25.6 0 0 1 0 51.2z" fill="#333333" p-id="11415"></path></svg>